<svg height="257.420007" viewBox="0 0 82.615853 55.170494" width="388.470193" xmlns="http://www.w3.org/2000/svg" xmlns:xlink="http://www.w3.org/1999/xlink"><clipPath id="a"><path d="m51.024 45.355h59.426v39.685h-59.426z"/></clipPath><clipPath id="b"><path d="m0 0h612.284v858.898h-612.284z"/></clipPath><g clip-path="url(#a)" transform="matrix(1.39023500459 0 0 -1.39023500459 -70.9356139601 118.22460800594)"><path d="m0 0c0-.4-.464-.726-1.037-.726h-56.892c-.572 0-1.036.326-1.036.726v37.762c0 .4.464.725 1.036.725h56.892c.573 0 1.037-.325 1.037-.725z" fill="#fff" transform="translate(110.2258 46.316299)"/><path d="m0 0h-56.892c-.714 0-1.273.423-1.273.962v37.762c0 .539.559.961 1.273.961h56.892c.714 0 1.273-.422 1.273-.961v-37.762c0-.539-.559-.962-1.273-.962m-56.892 39.212c-.427 0-.8-.228-.8-.488v-37.762c0-.26.373-.489.8-.489h56.892c.426 0 .8.229.8.489v37.762c0 .26-.374.488-.8.488z" fill="#2056ae" transform="translate(109.18919 45.354294)"/></g><g clip-path="url(#b)" transform="matrix(1.39023500459 0 0 -1.39023500459 -70.9356139601 118.22460800594)"><path d="m0 0c0-.286-.442-.517-.986-.517h-51.621c-.545 0-.986.231-.986.517v25.599c0 .286.441.518.986.518h51.621c.544 0 .986-.232.986-.518z" fill="#2056ae" transform="translate(107.5735 49.539001)"/><path d="m0 0h1.218l2.165-2.978h.014v2.978h.881v-3.956h-1.199l-2.186 2.93h-.012v-2.93h-.881z" fill="#fff" transform="translate(73.005295 72.218399)"/><path d="m0 0h2.02c.861 0 1.45-.35 1.45-1.003 0-.724-.45-.99-1.159-1.145l1.173-1.808h-1.053l-1.238 2.188c.124-.011.296-.035.39-.035.496 0 .94.201.94.67 0 .285-.145.551-.689.551h-.886v-3.374h-.948z" fill="#fff" transform="translate(84.525497 72.218399)"/><path d="m0 0h.828c1.098 0 1.582.647 1.542 1.537-.026.628-.444 1.162-1.251 1.162h-1.119zm-.948 3.328h2.239c1.337 0 1.973-.795 2.026-1.803.073-1.424-.939-2.153-2.172-2.153h-2.093z" fill="#fff" transform="translate(89.644302 68.890396)"/><path d="m0 0c0-.896.629-1.422 1.509-1.422.881 0 1.511.526 1.511 1.422s-.63 1.418-1.511 1.418c-.88 0-1.509-.522-1.509-1.418m4.019 0c0-1.417-1.152-2.052-2.51-2.052-1.357 0-2.509.635-2.509 2.052 0 1.418 1.152 2.046 2.509 2.046 1.358 0 2.51-.628 2.51-2.046" fill="#fff" transform="translate(94.444397 70.242905)"/><path d="m0 0c.37-.148.775-.256 1.178-.256.312 0 .703.108.703.44 0 .568-1.809 1.102-1.809 2.039 0 .512.404.991 1.478.991.35 0 .708-.042 1.053-.106l.099-.694c-.292.095-.61.171-.927.171-.504 0-.702-.243-.702-.42 0-.63 1.807-1.056 1.807-2.018 0-.462-.364-1.031-1.516-1.031-.424 0-.84.071-1.258.155z" fill="#fff" transform="translate(99.019501 69.075195)"/><path d="m0 0h3.742v-.629h-1.37v-3.327h-1v3.327h-1.372z" fill="#fff" transform="translate(102.1638 72.218399)"/><g fill="#2056ae"><path d="m0 0h2.212c.942 0 1.588-.465 1.588-1.331 0-.96-.493-1.316-1.269-1.52l1.284-2.403h-1.154l-1.355 2.906c.137-.015.326-.047.427-.047.544 0 1.03.268 1.03.89 0 .378-.16.733-.754.733h-.972v-4.482h-1.037z" transform="translate(53.971603 82.497192)"/><path d="m0 0h-2.436v-1.37h2.124v-.772h-2.124v-1.441h2.436v-.835h-3.531v5.254h3.531z" transform="translate(62.071396 81.661606)"/><path d="m0 0v-2.859c-.623-.134-1.24-.235-2.044-.235-1.487 0-2.749.842-2.749 2.724 0 1.465.986 2.718 2.886 2.718.544 0 1.094-.08 1.639-.205l.08-.929c-.493.172-1.016.298-1.53.298-1.19 0-1.98-.747-1.98-1.882 0-1.189.689-1.89 1.654-1.89.399 0 .717.055 1.007.133v1.355h-.87v.772z" transform="translate(67.5457 80.244095)"/><path d="m68.503 82.497h1.095v-5.254h-1.095z"/><path d="m0 0c0-1.19.689-1.891 1.654-1.891.964 0 1.653.701 1.653 1.891 0 1.189-.689 1.883-1.653 1.883-.965 0-1.654-.694-1.654-1.883m4.401 0c0-1.884-1.261-2.725-2.747-2.725-1.487 0-2.749.841-2.749 2.725 0 1.883 1.262 2.716 2.749 2.716 1.486 0 2.747-.833 2.747-2.716" transform="translate(71.497299 79.874603)"/><path d="m0 0h1.334l2.372-3.954h.013v3.954h.965v-5.254h-1.312l-2.393 3.891h-.015v-3.891h-.964z" transform="translate(76.710907 82.497192)"/><path d="m0 0-.623 1.756-.718-1.756zm-1.233 2.583h1.291l1.987-5.253h-1.161l-.645 1.834h-1.871l-.726-1.834h-1.188z" transform="translate(85.194595 79.913895)"/><path d="m0 0h1.095v-4.418h2.277v-.836h-3.372z" transform="translate(87.492706 82.497192)"/><path d="m0 0h1.094v-4.418h2.278v-.836h-3.372z" transform="translate(91.343307 82.497192)"/><path d="m95.186 82.497h1.095v-5.254h-1.095z"/><path d="m0 0v-2.859c-.623-.134-1.24-.235-2.045-.235-1.486 0-2.747.842-2.747 2.724 0 1.465.986 2.718 2.885 2.718.544 0 1.095-.08 1.639-.205l.08-.929c-.492.172-1.015.298-1.529.298-1.191 0-1.98-.747-1.98-1.882 0-1.189.689-1.89 1.652-1.89.4 0 .718.055 1.008.133v1.355h-.87v.772z" transform="translate(101.87849 80.244095)"/><path d="m0 0-.624 1.756-.718-1.756zm-1.233 2.583h1.29l1.988-5.253h-1.161l-.645 1.834h-1.871l-.725-1.834h-1.189z" transform="translate(105.5845 79.913895)"/></g><path d="m0 0 .092.012.088.044.134.12.273.124.292.109.397.089.228.083.485.148.271.069.678.273.014-.279.036-.356.046-.273.045-.275.078-.277.093-.281.045-.255.041-.299.037-.33.002-.318-.013-.499-.034-.414-.046-.336.002-.166-.021-.243-.009-.329.009-.534.052-.375.026-.454.047-.244.043-.29.082-.273.072-.198.135-.276.101-.171.15-.219.108-.226.098-.15.182-.215.2-.18.272-.147.189-.105.202-.113.285-.158.273-.158.167-.107.298-.102.225-.045.144-.037.124-.03.151.009.153-.016.139.02.213.009.224.031.305.009.225.039.067.106.211.068.192.016.306-.11.133-.064.034-.148-.086-.178-.614-.155-.238-.095-.267-.1-.294-.136-.287-.091-.248-.107-.264-.131-.36-.113-.333-.078-.329-.108-.328-.109-.33-.108-.329-.108-.298-.074-.262-.073-.189-.056-.077-.015-.117-.017-.122-.017-.14-.009-.083-.015-.124-.017-.126-.005-.127-.01-.153-.02-.168-.024-.197-.015-.207-.017-.205-.022-.193-.022-.203-.028-.202-.011h-.066l-.085-.001.046-.082.007-.071-.009-.096-.034-.086v-.118l-.017-.069.017-.102-.017-.152-.018-.154.018-.17.017-.273v-.272l.016-.17.034-.187.021-.219.346.107.305.093.144.049.159.052.162.055.15.052.204.078.193.047.219.062.239.047.23.036.156.007.122-.001.106.005.081.007.07.003.06.007.03.003 1.758.182.749.011.706.098.737.103.666.155.693.191.728.164.684.252.711.286.397.138.363.112.404.093.369.075.198.061.322.057.329.109.359.254.151.183.094.203.102.245.064.227.018.261-.056.4-.115.432-.117.256-.194.231-.291.231-.384.313-.49.299-.404.27-.492.216-.481.233-.45.208-.412.183-.083.038-.05.091-.009.062.01.043.046.067.036.054.036.054.16.11.271.156.465.253.474.191.496.256.499.217.441.227.515.201.68.154.458.077.249-.009.336.003.294-.003.185.027.536.035.347.061.323.09.44.159.551.253.484.199.43.163.401.172.389.141.302.145.383.082.19-.003h.102.076l.068-.035.102-.037.166-.071.166-.071.17-.101.137-.075.197-.066.192-.036.188-.004.111.108.136.144.11.108.14.114.11.11.111.109.139.114.072.043.078.051.052.027.339.267.304.292.343.235.345.205.344.235.272.289.233.345.138.363.017.097.072.165.017.098.048.1.014.127.049.101.018.096.032.085.018.052-.005.059-.005.041-.008.052-.016.094-.021.039-.06.038-.088.015-.218-.054-.764-.36-1.001-.451-1.035-.427-1.045-.365-1.079-.338-1.087-.194-1.055-.089-.938-.086-.364-.007-.351-.005-.292.003-.207.014-.264.007-.206-.025-.215-.029-.276-.039-.031-.005-.091-.013-.062-.009-.092-.012-.031-.004-.03-.004-.092-.013-.062-.009-.667-.156-.662-.185-.693-.191-.67-.124-.663-.186-.671-.125-1.057-.258-.569-.207-.371.204.004.568-.073.527-.071.447.603-.084.597-.033.542.028.337.037.404.033.227.052.053.018-.003.037.723.156.523.112.77.199.617.187.703.182.74.188.437.179.208.177.179.305.047.264.015.247-.004.292-.038.277-.008.315-.033.327-.05.274-.114.461-.107.426-.158.517-.154.492-.178.489-.215.667-.08.401-.103.517-.169.54-.074.084-.105.078-.097.019-.105.079-.073.083-.074.084-.105.079-.043.087-.093-.012-.092-.014-.061-.008-.101.048-.035.027-.061-.008-.043.088-.066.022-.039.057-.036.027-.101.048-.065.022-.092-.013-.092-.013-.031-.004-.092-.013-.057-.04.009-.061-.032-.004.005-.03-.03-.004.008-.062.295-.992-.023-.065-.061-.009-.008.062-.031-.004-.031-.004-.074.083-.044.087-.069.053-.039.056-.075.086-.035.026-.105.079-.092-.013-.241-.066-.022-.065.004-.03.009-.062-.027-.034.088-.177.086-.175.061-.211.087-.176.118-.17.117-.172.11-.11.205-.128.097-.017.065-.023.1-.048.098-.017.104-.08.1-.049.096-.018.101-.047.057-.181.086-.176.031-.214.025-.185.005-.204-.006-.233-.005-.189.013-.996.019-.486.013-.365.011-.428-.123-.163-.559-.029-.581.042-.5-.01-.464-.015-.5-.01-.151-.015-.08-.006-.124.004.002.03-.073.01-.132.017-.188.005-.193.035-.188.006-.194.035-.188.005-.192.036-.159.009-.188.005-.197.067-.192.035-.197.066-.144.04-.269.094-.256.128-.175.184.02.285.279.257.089.263.145.302.116.297.053.289.05.319-.043.308-.009.061-.004.031-.062-.008-.008.062.151.27-.114.141-.048.117-.083.146-.017.123-.049.118-.025.184-.021.154-.017.122-.009.062.031.004-.005.031.062.008-.008.062.03.003-.004.031.031.005-.039.277.129.204-.004.25-.359.107-.385.072-.381.04-.378.01-.403-.025-.238-.051-.316-.044-.267-.05-.212-.082-.12-.075-.061-.097-.033-.087-.047-.101-.08-.105-.026-.035-.08-.105-.05-.161-.068-.106-.019-.095-.029-.123-.063-.11-.044-.131-.019-.096.06-.659.336-1.507.004-.031-.061-.008-.031-.004-.061-.01-.014.001-.009.001-.026.002-.031-.004-.017-.002-.021-.002-.031-.007-.023-.008-.033-.006-.012-.002-.028-.01-.027-.004-.043-.01-.053-.016-.073-.025-.054-.006-.088-.019-.086.011-.133.026-.146.057-.133.046-.178.046-.103.006-.171.015-.203-.005-.18-.014-.176-.002-.171-.029-.232-.039-.202-.05-.154-.073-.074-.032-.122-.063-.271-.128-.273-.151-.328-.159-.381-.2-.313-.163-.286-.184-.301-.189-.331-.223-.321-.17-.118-.048-.137-.06-.13-.04-.119-.048-.084-.075" fill="#fff" transform="translate(52.399399 64.820694)"/><path d="m0 0c0-1.311-1.063-2.374-2.373-2.374-1.311 0-2.373 1.063-2.373 2.374 0 1.31 1.062 2.373 2.373 2.373 1.31 0 2.373-1.063 2.373-2.373" fill="#fff" transform="translate(83.2621 70.628693)"/><path d="m0 0c0-1.271-1.03-2.302-2.301-2.302s-2.3 1.031-2.3 2.302c0 1.27 1.029 2.301 2.3 2.301s2.301-1.031 2.301-2.301z" fill="none" stroke="#fff" stroke-miterlimit="10" stroke-width=".166" transform="translate(83.190002 70.628601)"/><path d="m0 0c0-.43-.152-.796-.456-1.102-.304-.305-.671-.458-1.104-.458-.432 0-.799.153-1.103.458-.304.306-.456.672-.456 1.102 0 .432.152.799.456 1.104.304.303.671.455 1.103.455.433 0 .8-.152 1.104-.455.304-.305.456-.672.456-1.104" fill="#fff" transform="translate(71.7117 53.211395)"/><path d="m0 0c0-.43-.152-.796-.456-1.102-.304-.305-.671-.458-1.103-.458s-.8.153-1.104.458c-.304.306-.455.672-.455 1.102 0 .432.151.799.455 1.104.304.303.672.455 1.104.455s.799-.152 1.103-.455c.304-.305.456-.672.456-1.104" fill="#fff" transform="translate(78.545303 53.211395)"/><path d="m0 0c0-.43-.151-.796-.456-1.102-.304-.305-.672-.458-1.103-.458-.432 0-.799.153-1.104.458-.304.306-.455.672-.455 1.102 0 .432.151.799.455 1.104.305.303.672.455 1.104.455.431 0 .799-.152 1.103-.455.305-.305.456-.672.456-1.104" fill="#fff" transform="translate(85.379303 53.211395)"/><path d="m0 0c0-.43-.151-.796-.456-1.102-.304-.305-.672-.458-1.103-.458-.432 0-.799.153-1.104.458-.304.306-.455.672-.455 1.102 0 .432.151.799.455 1.104.305.303.672.455 1.104.455.431 0 .799-.152 1.103-.455.305-.305.456-.672.456-1.104" fill="#fff" transform="translate(92.213303 53.211395)"/><path d="m0 0c0-.43-.151-.796-.456-1.102-.304-.305-.672-.458-1.103-.458-.432 0-.799.153-1.104.458-.304.306-.455.672-.455 1.102 0 .432.151.799.455 1.104.305.303.672.455 1.104.455.431 0 .799-.152 1.103-.455.305-.305.456-.672.456-1.104" fill="#fff" transform="translate(99.047302 53.211395)"/><path d="m0 0c0-.43-.151-.796-.456-1.102-.304-.305-.672-.458-1.103-.458-.433 0-.8.153-1.104.458-.304.306-.455.672-.455 1.102 0 .432.151.799.455 1.104.304.303.671.455 1.104.455.431 0 .799-.152 1.103-.455.305-.305.456-.672.456-1.104" fill="#fff" transform="translate(105.8813 53.211395)"/></g></svg>